<svg xmlns="http://www.w3.org/2000/svg" viewBox="0 0 32 32" role="img" aria-label="CareerFlow">
  <defs>
    <linearGradient id="g" x1="0%" y1="0%" x2="100%" y2="100%">
      <stop offset="0%" style="stop-color:#faf5ff;stop-opacity:1" />
      <stop offset="45%" style="stop-color:#c4b5fd;stop-opacity:1" />
      <stop offset="100%" style="stop-color:#6366f1;stop-opacity:1" />
    </linearGradient>
    <linearGradient id="card" x1="0%" y1="0%" x2="100%" y2="100%">
      <stop offset="0%" style="stop-color:#ffffff;stop-opacity:0.14" />
      <stop offset="100%" style="stop-color:#ffffff;stop-opacity:0.05" />
    </linearGradient>
  </defs>
  <!-- Card (matches landing glass tile) -->
  <rect width="32" height="32" rx="9" fill="#0a0a12" />
  <rect width="32" height="32" rx="9" fill="url(#card)" />
  <rect x="0.5" y="0.5" width="31" height="31" rx="8.5" fill="none" stroke="rgba(255,255,255,0.22)" stroke-width="1" />
  <!-- Zap (Lucide-style, scaled to center) -->
  <g transform="translate(6,5) scale(0.85)" fill="url(#g)">
    <path d="M4 14a1 1 0 0 1-.78-1.63l9.9-10.2a.5.5 0 0 1 .86.46l-1.92 6.02A1 1 0 0 0 13 10h7a1 1 0 0 1 .78 1.63l-9.9 10.2a.5.5 0 0 1-.86-.46l1.92-6.02A1 1 0 0 0 11 14z" />
  </g>
</svg>
